<svg xmlns="http://www.w3.org/2000/svg" width="32" height="33" viewBox="0 0 32 33" fill="none">
  <path d="M14.6663 12.5V8.49998H10.6663V5.83331H14.6663V1.83331H17.333V5.83331H21.333V8.49998H17.333V12.5H14.6663ZM9.33301 29.8333C8.59967 29.8333 7.97212 29.5724 7.45034 29.0506C6.92856 28.5289 6.66723 27.9009 6.66634 27.1666C6.66545 26.4324 6.92679 25.8049 7.45034 25.284C7.9739 24.7631 8.60145 24.5018 9.33301 24.5C10.0646 24.4982 10.6926 24.7595 11.217 25.284C11.7415 25.8084 12.0023 26.436 11.9997 27.1666C11.997 27.8973 11.7361 28.5253 11.217 29.0506C10.6979 29.576 10.0699 29.8369 9.33301 29.8333ZM22.6663 29.8333C21.933 29.8333 21.3055 29.5724 20.7837 29.0506C20.2619 28.5289 20.0006 27.9009 19.9997 27.1666C19.9988 26.4324 20.2601 25.8049 20.7837 25.284C21.3072 24.7631 21.9348 24.5018 22.6663 24.5C23.3979 24.4982 24.0259 24.7595 24.5503 25.284C25.0748 25.8084 25.3357 26.436 25.333 27.1666C25.3303 27.8973 25.0695 28.5253 24.5503 29.0506C24.0312 29.576 23.4032 29.8369 22.6663 29.8333ZM1.33301 5.83331V3.16665H5.69967L11.3663 15.1666H20.6997L25.8997 5.83331H28.933L23.0663 16.4333C22.8219 16.8778 22.4943 17.2222 22.0837 17.4666C21.673 17.7111 21.2228 17.8333 20.733 17.8333H10.7997L9.33301 20.5H25.333V23.1666H9.33301C8.33301 23.1666 7.57167 22.7333 7.04901 21.8666C6.52634 21 6.5099 20.1222 6.99967 19.2333L8.79967 15.9666L3.99967 5.83331H1.33301Z" fill="white"/>
</svg>