<svg width="195" height="32" viewBox="0 0 195 32" fill="none" xmlns="http://www.w3.org/2000/svg">
<rect x="1.5" y="1.5" width="192" height="29" rx="14.5" fill="#E8B325"/>
<path d="M36.626 10.534L35.204 12.604C34.964 12.364 34.748 12.184 34.556 12.064C33.968 11.704 33.29 11.524 32.522 11.524C31.406 11.524 30.356 11.944 29.372 12.784C28.4 13.612 27.788 14.626 27.536 15.826C27.476 16.126 27.446 16.384 27.446 16.6C27.446 17.512 27.752 18.292 28.364 18.94C28.976 19.588 29.756 19.912 30.704 19.912C31.496 19.912 32.27 19.75 33.026 19.426C33.278 19.318 33.578 19.156 33.926 18.94L34.394 20.992C33.926 21.268 33.53 21.472 33.206 21.604C32.198 22.024 31.22 22.234 30.272 22.234C28.616 22.234 27.296 21.766 26.312 20.83C25.34 19.882 24.854 18.64 24.854 17.104C24.854 16.732 24.86 16.468 24.872 16.312C24.896 16.156 24.938 15.934 24.998 15.646C25.358 13.87 26.324 12.352 27.896 11.092C29.468 9.832 31.112 9.202 32.828 9.202C33.86 9.202 34.802 9.424 35.654 9.868C35.93 10.012 36.254 10.234 36.626 10.534ZM49.8673 15.628C49.4833 17.44 48.5713 18.97 47.1313 20.218C45.5953 21.55 43.8193 22.216 41.8033 22.216C40.1833 22.216 38.8753 21.742 37.8793 20.794C36.8833 19.846 36.3853 18.622 36.3853 17.122C36.3853 16.798 36.3913 16.564 36.4033 16.42C36.4153 16.264 36.4573 16.03 36.5293 15.718C36.9253 13.882 37.8913 12.34 39.4273 11.092C40.9753 9.832 42.6433 9.202 44.4313 9.202C46.0873 9.202 47.4313 9.676 48.4633 10.624C49.4953 11.572 50.0113 12.796 50.0113 14.296C50.0113 14.704 49.9633 15.148 49.8673 15.628ZM47.2933 15.718C47.3653 15.406 47.4013 15.1 47.4013 14.8C47.4013 13.852 47.1013 13.06 46.5013 12.424C45.9013 11.788 45.0973 11.47 44.0893 11.47C42.9253 11.47 41.8633 11.89 40.9033 12.73C39.9433 13.57 39.3373 14.566 39.0853 15.718C39.0133 16.042 38.9773 16.354 38.9773 16.654C38.9773 17.638 39.2953 18.43 39.9313 19.03C40.5673 19.63 41.3533 19.93 42.2893 19.93C43.4173 19.93 44.4673 19.522 45.4393 18.706C46.4233 17.878 47.0413 16.882 47.2933 15.718ZM64.275 9.436L61.611 22H58.857L54.753 12.928L52.827 22H50.289L52.953 9.436H55.761L59.811 18.634L61.755 9.436H64.275ZM77.775 9.436L75.111 22H72.357L68.253 12.928L66.327 22H63.789L66.453 9.436H69.261L73.311 18.634L75.255 9.436H77.775ZM87.675 9.436L86.685 11.47H82.113L81.447 14.656H85.713L85.281 16.636H81.015L80.313 19.984H85.461L84.453 22H77.289L79.953 9.436H87.675ZM99.0635 10.534L97.6415 12.604C97.4015 12.364 97.1855 12.184 96.9935 12.064C96.4055 11.704 95.7275 11.524 94.9595 11.524C93.8435 11.524 92.7935 11.944 91.8095 12.784C90.8375 13.612 90.2255 14.626 89.9735 15.826C89.9135 16.126 89.8835 16.384 89.8835 16.6C89.8835 17.512 90.1895 18.292 90.8015 18.94C91.4135 19.588 92.1935 19.912 93.1415 19.912C93.9335 19.912 94.7075 19.75 95.4635 19.426C95.7155 19.318 96.0155 19.156 96.3635 18.94L96.8315 20.992C96.3635 21.268 95.9675 21.472 95.6435 21.604C94.6355 22.024 93.6575 22.234 92.7095 22.234C91.0535 22.234 89.7335 21.766 88.7495 20.83C87.7775 19.882 87.2915 18.64 87.2915 17.104C87.2915 16.732 87.2975 16.468 87.3095 16.312C87.3335 16.156 87.3755 15.934 87.4355 15.646C87.7955 13.87 88.7615 12.352 90.3335 11.092C91.9055 9.832 93.5495 9.202 95.2655 9.202C96.2975 9.202 97.2395 9.424 98.0915 9.868C98.3675 10.012 98.6915 10.234 99.0635 10.534ZM107.895 9.436L106.761 11.65H104.295L102.099 22H99.5068L101.703 11.65H99.0568L99.5248 9.436H107.895ZM128.445 9.436L122.505 22H120.129L119.877 12.838L115.755 22H113.379L112.785 9.436H115.287V18.472L119.445 9.436H121.785L122.109 18.472L125.961 9.436H128.445ZM137.188 22H134.398L134.11 18.652H130.276L128.53 22H125.722L132.778 9.436H135.478L137.188 22ZM134.074 16.834L133.678 11.704L131.05 16.834H134.074ZM146.264 19.948L145.238 22H138.092L140.756 9.436H143.348L141.116 19.948H146.264ZM154.93 19.948L153.904 22H146.758L149.422 9.436H152.014L149.782 19.948H154.93ZM165.81 9.436L164.82 11.47H160.248L159.582 14.656H163.848L163.416 16.636H159.15L158.448 19.984H163.596L162.588 22H155.424L158.088 9.436H165.81ZM174.498 9.436L173.364 11.65H170.898L168.702 22H166.11L168.306 11.65H165.66L166.128 9.436H174.498Z" fill="#1A2854"/>
<rect x="1.5" y="1.5" width="192" height="29" rx="14.5" stroke="#FEDC7D" stroke-width="3"/>
</svg>
