<svg width="201" height="27" viewBox="0 0 201 27" fill="none" xmlns="http://www.w3.org/2000/svg">
<path d="M36.6816 9.51562H34.8933C35.1698 9.14812 35.334 8.69153 35.334 8.19727C35.334 6.98569 34.3483 6 33.1367 6C32.4069 6 31.8688 6.26147 31.4431 6.82286C31.087 7.29255 30.8266 7.94833 30.5 8.7769C30.1734 7.9483 29.913 7.29255 29.5569 6.82286C29.1313 6.26147 28.5931 6 27.8633 6C26.6517 6 25.666 6.98569 25.666 8.19727C25.666 8.69153 25.8302 9.14812 26.1067 9.51562H24.3184C23.5914 9.51562 23 10.107 23 10.834V11.7129C23 12.2858 23.3674 12.7743 23.8789 12.9557V19.6816C23.8789 20.4086 24.4703 21 25.1973 21H35.8027C36.5297 21 37.1211 20.4086 37.1211 19.6816V12.9557C37.6326 12.7743 38 12.2858 38 11.7129V10.834C38 10.107 37.4086 9.51562 36.6816 9.51562ZM31.3067 9.12715C31.9799 7.4192 32.2358 6.87891 33.1367 6.87891C33.8637 6.87891 34.4551 7.47032 34.4551 8.19727C34.4551 8.92421 33.8637 9.51562 33.1367 9.51562H31.1529C31.2068 9.38042 31.2581 9.25025 31.3067 9.12715ZM27.8633 6.87891C28.7642 6.87891 29.0201 7.4192 29.6933 9.12715C29.7419 9.25025 29.7932 9.38042 29.8471 9.51562H27.8633C27.1363 9.51562 26.5449 8.92421 26.5449 8.19727C26.5449 7.47032 27.1363 6.87891 27.8633 6.87891ZM28.7422 20.1211H25.1973C24.955 20.1211 24.7578 19.924 24.7578 19.6816V13.0312H28.7422V20.1211ZM28.7422 12.1523H24.3184C24.076 12.1523 23.8789 11.9552 23.8789 11.7129V10.834C23.8789 10.5917 24.076 10.3945 24.3184 10.3945H28.7422V12.1523ZM31.3789 20.1211H29.6211V10.3945C29.7132 10.3945 30.8738 10.3945 31.3789 10.3945V20.1211ZM36.2422 19.6816C36.2422 19.924 36.045 20.1211 35.8027 20.1211H32.2578V13.0312H36.2422V19.6816ZM37.1211 11.7129C37.1211 11.9552 36.924 12.1523 36.6816 12.1523H32.2578V10.3945H36.6816C36.924 10.3945 37.1211 10.5917 37.1211 10.834V11.7129Z" fill="#FEDC7D"/>
<path d="M55.241 8.926L53.317 18H51.51L53.109 10.486H52.108L52.953 8.926H55.241ZM65.1043 13.463C64.801 14.9017 64.1727 16.0673 63.2193 16.96C62.3353 17.792 61.3907 18.208 60.3853 18.208C59.5533 18.208 58.873 17.9047 58.3443 17.298C57.7897 16.6653 57.5123 15.829 57.5123 14.789C57.5123 14.3383 57.56 13.8963 57.6553 13.463C57.9587 12.033 58.5957 10.8673 59.5663 9.966C60.459 9.134 61.408 8.718 62.4133 8.718C63.2627 8.718 63.9473 9.02567 64.4673 9.641C64.996 10.2477 65.2603 11.0623 65.2603 12.085C65.2603 12.5097 65.2083 12.969 65.1043 13.463ZM63.2843 13.476C63.371 13.0773 63.4143 12.6787 63.4143 12.28C63.4143 11.6907 63.3017 11.214 63.0763 10.85C62.851 10.486 62.513 10.304 62.0623 10.304C61.5423 10.304 61.044 10.5727 60.5673 11.11C60.0387 11.6993 59.6703 12.4837 59.4623 13.463C59.3757 13.8703 59.3323 14.2647 59.3323 14.646C59.3323 15.2613 59.4537 15.7467 59.6963 16.102C59.939 16.4573 60.2727 16.635 60.6973 16.635C61.2433 16.635 61.759 16.3447 62.2443 15.764C62.7383 15.1747 63.085 14.412 63.2843 13.476ZM73.3817 13.463C73.0784 14.9017 72.45 16.0673 71.4967 16.96C70.6127 17.792 69.668 18.208 68.6627 18.208C67.8307 18.208 67.1504 17.9047 66.6217 17.298C66.067 16.6653 65.7897 15.829 65.7897 14.789C65.7897 14.3383 65.8374 13.8963 65.9327 13.463C66.236 12.033 66.873 10.8673 67.8437 9.966C68.7364 9.134 69.6854 8.718 70.6907 8.718C71.54 8.718 72.2247 9.02567 72.7447 9.641C73.2734 10.2477 73.5377 11.0623 73.5377 12.085C73.5377 12.5097 73.4857 12.969 73.3817 13.463ZM71.5617 13.476C71.6484 13.0773 71.6917 12.6787 71.6917 12.28C71.6917 11.6907 71.579 11.214 71.3537 10.85C71.1284 10.486 70.7904 10.304 70.3397 10.304C69.8197 10.304 69.3214 10.5727 68.8447 11.11C68.316 11.6993 67.9477 12.4837 67.7397 13.463C67.653 13.8703 67.6097 14.2647 67.6097 14.646C67.6097 15.2613 67.731 15.7467 67.9737 16.102C68.2164 16.4573 68.55 16.635 68.9747 16.635C69.5207 16.635 70.0364 16.3447 70.5217 15.764C71.0157 15.1747 71.3624 14.412 71.5617 13.476ZM84.535 11.292C84.3876 11.9593 84.0323 12.4923 83.469 12.891C83.287 13.021 83.014 13.1553 82.65 13.294C82.9966 13.3807 83.2523 13.4717 83.417 13.567C83.9283 13.8703 84.184 14.3253 84.184 14.932C84.184 15.0707 84.1623 15.257 84.119 15.491C83.9716 16.193 83.6163 16.778 83.053 17.246C82.4463 17.7487 81.727 18 80.895 18H77.281L79.205 8.926H82.403C83.0963 8.926 83.6336 9.08633 84.015 9.407C84.405 9.72767 84.6 10.1653 84.6 10.72C84.6 10.7893 84.6 10.8587 84.6 10.928C84.5913 10.98 84.5696 11.1013 84.535 11.292ZM82.884 11.409C82.9013 11.2703 82.91 11.175 82.91 11.123C82.91 10.499 82.533 10.187 81.779 10.187H80.817L80.258 12.787H81.168C81.6446 12.787 82.026 12.6613 82.312 12.41C82.598 12.15 82.7886 11.8163 82.884 11.409ZM82.39 15.218C82.416 15.0967 82.429 14.984 82.429 14.88C82.429 14.2473 81.961 13.931 81.025 13.931H80.024L79.426 16.687H80.466C81.038 16.687 81.4756 16.57 81.779 16.336C82.0823 16.102 82.286 15.7293 82.39 15.218ZM94.923 8.926L92.999 18H91.01L88.046 11.448L86.655 18H84.822L86.746 8.926H88.774L91.699 15.569L93.103 8.926H94.923ZM101.826 11.292C101.679 11.9593 101.323 12.4923 100.76 12.891C100.578 13.021 100.305 13.1553 99.941 13.294C100.288 13.3807 100.543 13.4717 100.708 13.567C101.219 13.8703 101.475 14.3253 101.475 14.932C101.475 15.0707 101.453 15.257 101.41 15.491C101.263 16.193 100.907 16.778 100.344 17.246C99.7373 17.7487 99.018 18 98.186 18H94.572L96.496 8.926H99.694C100.387 8.926 100.925 9.08633 101.306 9.407C101.696 9.72767 101.891 10.1653 101.891 10.72C101.891 10.7893 101.891 10.8587 101.891 10.928C101.882 10.98 101.861 11.1013 101.826 11.292ZM100.175 11.409C100.192 11.2703 100.201 11.175 100.201 11.123C100.201 10.499 99.824 10.187 99.07 10.187H98.108L97.549 12.787H98.459C98.9357 12.787 99.317 12.6613 99.603 12.41C99.889 12.15 100.08 11.8163 100.175 11.409ZM99.681 15.218C99.707 15.0967 99.72 14.984 99.72 14.88C99.72 14.2473 99.252 13.931 98.316 13.931H97.315L96.717 16.687H97.757C98.329 16.687 98.7667 16.57 99.07 16.336C99.3733 16.102 99.577 15.7293 99.681 15.218ZM112.867 9.459L112.087 10.824C111.905 10.6853 111.749 10.5813 111.619 10.512C111.22 10.304 110.809 10.2 110.384 10.2C109.977 10.2 109.608 10.33 109.279 10.59C108.984 10.824 108.802 11.0883 108.733 11.383C108.716 11.5043 108.707 11.5867 108.707 11.63C108.707 12.0373 109.288 12.4143 110.449 12.761C111.61 13.1077 112.191 13.6797 112.191 14.477C112.191 14.633 112.182 14.763 112.165 14.867C112.148 14.971 112.135 15.049 112.126 15.101C111.953 15.9157 111.528 16.609 110.852 17.181C110.089 17.8223 109.162 18.143 108.07 18.143C107.351 18.143 106.696 17.961 106.107 17.597C105.908 17.4757 105.682 17.2893 105.431 17.038L106.458 15.608C106.657 15.8333 106.831 16.0023 106.978 16.115C107.429 16.453 107.901 16.622 108.395 16.622C108.846 16.622 109.231 16.5007 109.552 16.258C109.881 16.0067 110.089 15.686 110.176 15.296C110.193 15.2353 110.202 15.1443 110.202 15.023C110.202 14.5983 109.626 14.217 108.473 13.879C107.329 13.541 106.757 12.9907 106.757 12.228C106.757 12.0807 106.761 11.9767 106.77 11.916C106.779 11.8553 106.796 11.7643 106.822 11.643C106.978 10.9063 107.381 10.2607 108.031 9.706C108.759 9.09067 109.604 8.783 110.566 8.783C111.147 8.783 111.706 8.89567 112.243 9.121C112.416 9.19033 112.624 9.303 112.867 9.459ZM123.4 13.697L122.49 18H120.826L121.658 14.087C121.684 13.9397 121.697 13.814 121.697 13.71C121.697 13.164 121.363 12.891 120.696 12.891C119.899 12.891 119.418 13.2983 119.253 14.113L118.421 18H116.757L117.576 14.152C117.602 14.0047 117.615 13.8747 117.615 13.762C117.615 13.476 117.528 13.2593 117.355 13.112C117.19 12.956 116.952 12.878 116.64 12.878C116.276 12.878 115.964 12.9863 115.704 13.203C115.453 13.411 115.284 13.7143 115.197 14.113L114.365 18H112.701L113.923 12.241L115.769 11.409L115.561 12.358C115.786 12.1587 115.977 12.0113 116.133 11.916C116.627 11.6213 117.151 11.474 117.706 11.474C118.226 11.474 118.651 11.6517 118.98 12.007C119.084 12.1197 119.197 12.2973 119.318 12.54C119.543 12.306 119.743 12.1327 119.916 12.02C120.453 11.6647 121.056 11.487 121.723 11.487C122.269 11.487 122.694 11.6387 122.997 11.942C123.309 12.2367 123.465 12.6353 123.465 13.138C123.465 13.294 123.443 13.4803 123.4 13.697ZM131.63 11.656L130.278 18H128.653L128.809 17.272C128.575 17.532 128.254 17.753 127.847 17.935C127.448 18.1083 127.032 18.195 126.599 18.195C125.853 18.195 125.277 17.961 124.87 17.493C124.497 17.0597 124.311 16.479 124.311 15.751C124.311 15.465 124.345 15.1573 124.415 14.828C124.614 13.892 125.069 13.1077 125.78 12.475C126.49 11.8423 127.253 11.526 128.068 11.526C128.501 11.526 128.869 11.604 129.173 11.76C129.476 11.9073 129.701 12.111 129.849 12.371L130.005 11.656H131.63ZM129.238 14.802C129.272 14.6633 129.298 14.5117 129.316 14.347C129.333 14.1823 129.342 14.0393 129.342 13.918C129.342 13.5453 129.251 13.2767 129.069 13.112C128.887 12.9473 128.601 12.865 128.211 12.865C127.734 12.865 127.309 13.0383 126.937 13.385C126.573 13.723 126.326 14.204 126.196 14.828C126.152 15.062 126.131 15.257 126.131 15.413C126.131 15.8637 126.252 16.2017 126.495 16.427C126.746 16.6523 127.062 16.765 127.444 16.765C127.912 16.765 128.293 16.609 128.588 16.297C128.882 15.985 129.099 15.4867 129.238 14.802ZM137.267 11.552L136.552 13.177C136.508 13.1683 136.474 13.164 136.448 13.164C136.24 13.1207 136.118 13.099 136.084 13.099C135.702 13.099 135.338 13.2333 134.992 13.502C134.593 13.814 134.337 14.2257 134.225 14.737L133.536 18H131.833L133.055 12.254L134.862 11.409L134.615 12.553C134.857 12.241 135.178 11.9897 135.577 11.799C135.975 11.5997 136.404 11.5 136.864 11.5C136.916 11.5 136.976 11.5043 137.046 11.513C137.124 11.5217 137.197 11.5347 137.267 11.552ZM140.914 11.656L140.186 13.008H139.328L138.262 18H136.559L137.625 13.008H136.715L140.108 9.329L139.614 11.656H140.914ZM152.815 9.719L151.788 11.214C151.614 11.0407 151.458 10.9107 151.32 10.824C150.895 10.564 150.405 10.434 149.851 10.434C149.045 10.434 148.286 10.7373 147.576 11.344C146.874 11.942 146.432 12.6743 146.25 13.541C146.206 13.7577 146.185 13.944 146.185 14.1C146.185 14.7587 146.406 15.322 146.848 15.79C147.29 16.258 147.853 16.492 148.538 16.492C149.11 16.492 149.669 16.375 150.215 16.141C150.397 16.063 150.613 15.946 150.865 15.79L151.203 17.272C150.865 17.4713 150.579 17.6187 150.345 17.714C149.617 18.0173 148.91 18.169 148.226 18.169C147.03 18.169 146.076 17.831 145.366 17.155C144.664 16.4703 144.313 15.5733 144.313 14.464C144.313 14.1953 144.317 14.0047 144.326 13.892C144.343 13.7793 144.373 13.619 144.417 13.411C144.677 12.1283 145.374 11.032 146.51 10.122C147.645 9.212 148.832 8.757 150.072 8.757C150.817 8.757 151.497 8.91733 152.113 9.238C152.312 9.342 152.546 9.50233 152.815 9.719ZM159.128 13.619L158.192 18H156.489L157.321 14.113C157.338 14.061 157.347 14.009 157.347 13.957C157.347 13.8877 157.347 13.84 157.347 13.814C157.347 13.2247 156.996 12.93 156.294 12.93C155.86 12.93 155.488 13.0513 155.176 13.294C154.864 13.528 154.669 13.8313 154.591 14.204L153.785 18H152.082L153.876 9.537L155.761 8.705L154.968 12.436C155.202 12.2193 155.405 12.059 155.579 11.955C156.099 11.6343 156.649 11.474 157.23 11.474C157.836 11.474 158.313 11.617 158.66 11.903C159.015 12.189 159.193 12.5877 159.193 13.099C159.193 13.2463 159.171 13.4197 159.128 13.619ZM167.329 11.656L165.977 18H164.352L164.508 17.272C164.274 17.532 163.953 17.753 163.546 17.935C163.147 18.1083 162.731 18.195 162.298 18.195C161.552 18.195 160.976 17.961 160.569 17.493C160.196 17.0597 160.01 16.479 160.01 15.751C160.01 15.465 160.044 15.1573 160.114 14.828C160.313 13.892 160.768 13.1077 161.479 12.475C162.189 11.8423 162.952 11.526 163.767 11.526C164.2 11.526 164.568 11.604 164.872 11.76C165.175 11.9073 165.4 12.111 165.548 12.371L165.704 11.656H167.329ZM164.937 14.802C164.971 14.6633 164.997 14.5117 165.015 14.347C165.032 14.1823 165.041 14.0393 165.041 13.918C165.041 13.5453 164.95 13.2767 164.768 13.112C164.586 12.9473 164.3 12.865 163.91 12.865C163.433 12.865 163.008 13.0383 162.636 13.385C162.272 13.723 162.025 14.204 161.895 14.828C161.851 15.062 161.83 15.257 161.83 15.413C161.83 15.8637 161.951 16.2017 162.194 16.427C162.445 16.6523 162.761 16.765 163.143 16.765C163.611 16.765 163.992 16.609 164.287 16.297C164.581 15.985 164.798 15.4867 164.937 14.802ZM171.016 10.031C170.964 10.2823 170.825 10.512 170.6 10.72C170.383 10.9193 170.136 11.019 169.859 11.019C169.608 11.019 169.408 10.9497 169.261 10.811C169.114 10.6723 169.04 10.4903 169.04 10.265C169.04 10.2217 169.049 10.1567 169.066 10.07C169.127 9.784 169.265 9.54567 169.482 9.355C169.699 9.16433 169.95 9.069 170.236 9.069C170.47 9.069 170.661 9.14267 170.808 9.29C170.964 9.42867 171.042 9.60633 171.042 9.823C171.042 9.875 171.033 9.94433 171.016 10.031ZM170.561 11.422L169.157 18H167.454L168.676 12.267L170.561 11.422ZM177.662 13.749L176.752 18H175.049L175.855 14.23C175.881 14.0827 175.894 13.9483 175.894 13.827C175.894 13.229 175.552 12.93 174.867 12.93C174.468 12.93 174.1 13.073 173.762 13.359C173.424 13.645 173.212 13.9917 173.125 14.399L172.371 18H170.668L171.877 12.241L173.684 11.409L173.463 12.462C173.766 12.1413 174.1 11.903 174.464 11.747C174.837 11.5823 175.253 11.5 175.712 11.5C176.319 11.5 176.795 11.6257 177.142 11.877C177.532 12.163 177.727 12.5833 177.727 13.138C177.727 13.2247 177.723 13.3243 177.714 13.437C177.705 13.541 177.688 13.645 177.662 13.749Z" fill="white"/>
<rect x="1.5" y="1.5" width="198" height="24" rx="12" stroke="#FEDC7D" stroke-width="3"/>
</svg>
