<svg xmlns="http://www.w3.org/2000/svg" width="29" height="32" viewBox="0 0 29 32">
    <defs>
        <filter id="sauxcrm3ta">
            <feColorMatrix in="SourceGraphic" values="0 0 0 0 1.000000 0 0 0 0 1.000000 0 0 0 0 1.000000 0 0 0 1.000000 0"/>
        </filter>
    </defs>
    <g fill="none" fill-rule="evenodd">
        <g>
            <g filter="url(#sauxcrm3ta)" transform="translate(-206 -671) translate(158 668)">
                <g>
                    <path fill="#000" fill-rule="nonzero" d="M24.63 0c1.817 0 3.283 1.46 3.37 3.176V30.8l-3.46-2.917-1.901-1.717-2.074-1.794.866 2.83H3.284C1.47 27.202 0 25.835 0 24.024V3.183C0 1.466 1.474.003 3.29.003h21.33L24.63 0zm-7.91 7.293h-.038l-.261.257c2.68.77 3.976 1.972 3.976 1.972-1.727-.857-3.283-1.286-4.84-1.459-1.125-.173-2.25-.082-3.2 0H12.1c-.608 0-1.9.257-3.633.943-.603.26-.95.432-.95.432s1.295-1.286 4.15-1.973l-.175-.173S9.33 7.21 6.996 8.922c0 0-2.333 4.035-2.333 9.009 0 0 1.293 2.233 4.839 2.317 0 0 .517-.684 1.04-1.285-1.99-.601-2.766-1.802-2.766-1.802s.173.084.433.256h.078c.038 0 .057.02.077.039v.008c.02.02.039.038.078.038.426.175.853.347 1.202.513.602.26 1.377.518 2.327.688 1.202.174 2.58.257 4.15 0 .775-.173 1.551-.342 2.327-.686.504-.257 1.124-.514 1.806-.946 0 0-.776 1.201-2.85 1.802.426.598 1.027 1.283 1.027 1.283 3.547-.077 4.925-2.31 5.003-2.215 0-4.966-2.346-9.009-2.346-9.009-2.114-1.558-4.092-1.617-4.441-1.617l.072-.026.002.004zm.218 5.664c.909 0 1.642.77 1.642 1.713 0 .95-.737 1.72-1.642 1.72-.905 0-1.642-.77-1.642-1.713.003-.95.74-1.717 1.642-1.717v-.003zm-5.873 0c.905 0 1.636.77 1.636 1.713 0 .95-.736 1.72-1.641 1.72s-1.642-.77-1.642-1.713c0-.95.737-1.717 1.642-1.717l.005-.003z" transform="translate(48.3 3.363)"/>
                </g>
            </g>
        </g>
    </g>
</svg>
