<svg xmlns="http://www.w3.org/2000/svg" width="32" height="31" viewBox="0 0 32 31">
    <defs>
        <filter id="bgqd60adha">
            <feColorMatrix in="SourceGraphic" values="0 0 0 0 1.000000 0 0 0 0 1.000000 0 0 0 0 1.000000 0 0 0 1.000000 0"/>
        </filter>
    </defs>
    <g fill="none" fill-rule="evenodd">
        <g>
            <g filter="url(#bgqd60adha)" transform="translate(-299 -668) translate(158 668)">
                <g>
                    <path fill="#000" d="M30.1 15.705C30.1 7.343 23.362.563 15.05.563 6.738.563 0 7.343 0 15.705c0 7.558 5.504 13.822 12.698 14.958v-10.58h-3.82v-4.378h3.82V12.37c0-3.795 2.247-5.89 5.685-5.89 1.647 0 3.369.295 3.369.295V10.5h-1.898c-1.87 0-2.452 1.167-2.452 2.365v2.84h4.174l-.668 4.377h-3.506v10.581c7.194-1.136 12.698-7.4 12.698-14.958z" transform="translate(141.4)"/>
                </g>
            </g>
        </g>
    </g>
</svg>
