<svg xmlns="http://www.w3.org/2000/svg" width="29" height="29" viewBox="0 0 29 29">
    <defs>
        <filter id="akgoff7qya">
            <feColorMatrix in="SourceGraphic" values="0 0 0 0 1.000000 0 0 0 0 1.000000 0 0 0 0 1.000000 0 0 0 1.000000 0"/>
        </filter>
    </defs>
    <g fill="none" fill-rule="evenodd">
        <g>
            <g filter="url(#akgoff7qya)" transform="translate(-394 -671) translate(158 668)">
                <g fill="#062B31" fill-rule="nonzero">
                    <path d="M18.943 2.229c3.385 0 6.128 2.743 6.128 6.128v10.586c0 3.385-2.743 6.128-6.128 6.128H8.357c-3.385 0-6.128-2.743-6.128-6.128V8.357c0-3.385 2.743-6.128 6.128-6.128h10.586m0-2.229H8.357C3.747.014.014 3.747 0 8.357v10.586c.014 4.61 3.747 8.343 8.357 8.357h10.586c4.61-.014 8.343-3.747 8.357-8.357V8.357C27.286 3.747 23.553.014 18.943 0z" transform="translate(236.6 3.363)"/>
                    <path d="M21.35 4.2c-.966 0-1.75.784-1.75 1.75s.784 1.75 1.75 1.75 1.75-.784 1.75-1.75c0-.464-.184-.91-.513-1.237-.328-.329-.773-.513-1.237-.513zM13.986 9.18c1.95 0 3.708 1.173 4.455 2.974.747 1.802.335 3.875-1.044 5.254-1.379 1.378-3.452 1.79-5.253 1.044-1.802-.747-2.975-2.505-2.974-4.455.004-2.658 2.158-4.812 4.816-4.816m0-2.181c-3.864.008-6.992 3.145-6.986 7.01.006 3.865 3.142 6.994 7.006 6.99 3.865-.004 6.995-3.138 6.994-7.003 0-1.858-.74-3.64-2.056-4.953-1.316-1.312-3.1-2.048-4.958-2.044z" transform="translate(236.6 3.363)"/>
                </g>
            </g>
        </g>
    </g>
</svg>
