<svg xmlns="http://www.w3.org/2000/svg" width="34" height="28" viewBox="0 0 34 28">
    <defs>
        <filter id="k4591lmjsa">
            <feColorMatrix in="SourceGraphic" values="0 0 0 0 1.000000 0 0 0 0 1.000000 0 0 0 0 1.000000 0 0 0 1.000000 0"/>
        </filter>
    </defs>
    <g fill="none" fill-rule="evenodd">
        <g>
            <g filter="url(#k4591lmjsa)" transform="translate(-250 -670) translate(158 668)">
                <g>
                    <path fill="#000" d="M10.126 26.474c12.151 0 18.797-9.965 18.797-18.607 0-.283 0-.565-.019-.845 1.293-.926 2.41-2.072 3.296-3.385-1.206.528-2.485.875-3.794 1.028 1.378-.817 2.411-2.103 2.904-3.617-1.297.762-2.716 1.299-4.195 1.588C25.865 1.32 24.121.574 22.298.574c-3.628 0-6.613 2.955-6.613 6.546 0 .498.058.995.172 1.48-5.31-.263-10.263-2.75-13.616-6.833C.498 4.74 1.4 8.59 4.286 10.497c-1.05-.03-2.08-.311-2.998-.818v.083c0 3.1 2.23 5.796 5.3 6.41-.972.263-1.993.301-2.983.112.863 2.658 3.353 4.49 6.172 4.542-2.339 1.82-5.23 2.808-8.204 2.805-.526-.001-1.051-.032-1.573-.094 3.02 1.919 6.537 2.937 10.126 2.932" transform="translate(92.4 2.79)"/>
                </g>
            </g>
        </g>
    </g>
</svg>
