<svg xmlns="http://www.w3.org/2000/svg" width="34" height="25" viewBox="0 0 34 25">
    <defs>
        <filter id="riqerg7q0a">
            <feColorMatrix in="SourceGraphic" values="0 0 0 0 1.000000 0 0 0 0 1.000000 0 0 0 0 1.000000 0 0 0 1.000000 0"/>
        </filter>
    </defs>
    <g fill="none" fill-rule="evenodd">
        <g>
            <g filter="url(#riqerg7q0a)" transform="translate(-345 -673) translate(158 668)">
                <g>
                    <path fill="#000" fill-rule="nonzero" d="M32.572 4.983s-.322-2.263-1.309-3.26C30.013.415 28.61.41 27.967.333 23.363 0 16.457 0 16.457 0h-.014S9.537 0 4.933.332C4.29.41 2.888.415 1.637 1.723.65 2.72.329 4.983.329 4.983S0 7.641 0 10.3v2.492c0 2.657.329 5.315.329 5.315s.321 2.263 1.308 3.26c1.25 1.308 2.895 1.267 3.627 1.404 2.632.252 11.186.33 11.186.33s6.913-.01 11.517-.343c.643-.076 2.046-.083 3.296-1.39.987-.998 1.309-3.261 1.309-3.261s.328-2.658.328-5.315v-2.492c0-2.658-.328-5.316-.328-5.316zM13.054 15.81l-.002-9.228 8.89 4.63-8.888 4.598z" transform="translate(187.6 5.463)"/>
                </g>
            </g>
        </g>
    </g>
</svg>
